<svg width="34" height="33" viewBox="0 0 34 33" fill="none" xmlns="http://www.w3.org/2000/svg">
<path d="M18.4646 32.182H15.9801C15.9248 32.0896 15.8294 32.1248 15.7502 32.1173C13.7595 31.9381 11.82 31.3955 10.0302 30.5173C3.28171 27.1905 -0.24836 19.9507 1.31999 12.663C2.84322 5.58442 9.22306 0.284731 16.5523 0.0176474C19.7877 -0.100777 22.8197 0.60557 25.5818 2.27107C29.9412 4.90271 32.542 8.71552 33.3844 13.7095C33.4474 14.0849 33.427 14.4729 33.5641 14.8375V17.3512C33.4908 17.3857 33.5062 17.4545 33.5002 17.5142C33.1724 20.9871 31.8629 24.0552 29.5291 26.6689C26.8953 29.6231 23.5996 31.402 19.6421 32.0056C19.2505 32.0686 18.8469 32.0543 18.4646 32.182ZM26.4852 8.26366C26.3053 8.27745 26.1287 8.31853 25.9615 8.38544L15.5271 12.0961L7.63257 14.9013C7.46228 14.9618 7.292 15.0222 7.18216 15.1768C6.9063 15.5547 7.11404 16.0057 7.63513 16.1468C9.09535 16.5433 10.5556 16.9414 12.02 17.3227C12.1066 17.3384 12.1866 17.3785 12.2505 17.4381C12.3144 17.4977 12.3595 17.5743 12.3802 17.6586C12.9107 19.2133 13.4513 20.7662 13.9894 22.3175C14.2636 23.107 14.9166 23.2733 15.5297 22.7064C16.2347 22.0546 16.9431 21.4062 17.6319 20.7393C17.8158 20.5604 17.929 20.5714 18.1308 20.7066C19.6067 21.7089 21.0893 22.7027 22.5788 23.6882C23.3289 24.1871 24.0782 23.9007 24.2757 23.0398C25.3213 18.4926 26.3651 13.9452 27.4073 9.39751C27.5503 8.78271 27.1246 8.2603 26.4852 8.26366Z" fill="white"/>
<path d="M13.0997 17.2748C13.092 16.9758 13.27 16.8801 13.4488 16.7793C15.4536 15.6471 17.4582 14.5138 19.4625 13.3794L23.3519 11.1831C23.4319 11.1333 23.5177 11.093 23.6073 11.063C23.6536 11.0483 23.7037 11.0508 23.7482 11.0699C23.7927 11.0891 23.8286 11.1237 23.8491 11.1672C23.8702 11.2041 23.8772 11.2473 23.8688 11.289C23.8604 11.3306 23.8371 11.3678 23.8031 11.3939C23.7427 11.4519 23.6763 11.5048 23.6107 11.5577C20.8509 13.7834 18.0908 16.0074 15.3304 18.2298C15.2204 18.3089 15.1292 18.4108 15.0632 18.5283C14.9972 18.6458 14.9579 18.7761 14.9481 18.9101C14.8766 19.6803 14.7711 20.4479 14.674 21.2156C14.6638 21.2903 14.6893 21.4104 14.5888 21.4281C14.4518 21.4516 14.4603 21.3155 14.4322 21.2349C14.0031 19.9773 13.5753 18.7197 13.1491 17.4621C13.121 17.3832 13.1065 17.3009 13.0997 17.2748Z" fill="white"/>
</svg>
