<svg width="33" height="33" viewBox="0 0 33 33" fill="none" xmlns="http://www.w3.org/2000/svg">
<path d="M16.4524 32.1878H16.0701C15.9271 32.1601 15.7849 32.1215 15.6444 32.1038C14.9701 32.035 14.2898 32.0123 13.6231 31.9031C9.66049 31.2581 6.36881 29.4086 3.80512 26.3733C0.693107 22.6896 -0.487841 18.4196 0.187352 13.686C0.661605 10.3667 2.10225 7.45484 4.47437 5.05528C8.50338 0.980151 13.4307 -0.633272 19.1106 0.302362C23.5117 1.02718 27.0111 3.30664 29.5885 6.90555C31.4048 9.41014 32.419 12.394 32.5004 15.4724C32.5175 15.6371 32.5459 15.8004 32.5855 15.9612V16.2132C32.5566 16.3971 32.5225 16.5802 32.5004 16.7641C32.3905 17.6544 32.3497 18.559 32.1598 19.4333C30.6272 26.6505 24.1903 31.9014 16.8858 32.1055C16.7393 32.1212 16.5944 32.1488 16.4524 32.1878ZM9.66815 11.7878V11.7836C9.3395 11.7836 9.00998 11.7836 8.68047 11.7836C8.09553 11.7836 7.89885 12.0641 8.14918 12.584C8.61406 13.5482 9.04149 14.5368 9.59663 15.4514C10.2386 16.5197 10.9257 17.578 11.7193 18.5388C13.0892 20.1968 14.9275 20.8788 17.0833 20.7024C17.475 20.6705 17.6972 20.4067 17.7577 19.9876C17.8058 19.6359 17.8737 19.2871 17.9612 18.9428C18.0463 18.6136 18.312 18.5229 18.6015 18.7118C18.7409 18.8076 18.8691 18.9183 18.9838 19.0419C19.3448 19.4106 19.6768 19.8113 20.0651 20.1497C20.3205 20.3723 20.6407 20.631 20.9523 20.6587C21.9009 20.7474 22.8547 20.7682 23.8063 20.7209C24.4381 20.6856 24.6493 20.1565 24.3172 19.6156C24.1206 19.2916 23.8925 18.9872 23.636 18.7068C23.1371 18.1642 22.6075 17.6494 22.0898 17.1228C21.7629 16.7868 21.7399 16.6046 21.9834 16.2039C22.0437 16.1053 22.1091 16.0097 22.1792 15.9175C22.7071 15.2095 23.2589 14.5166 23.7569 13.7884C24.0143 13.394 24.2284 12.9736 24.3955 12.5345C24.5658 12.1213 24.4134 11.9113 23.9698 11.8155C23.886 11.7967 23.8003 11.7869 23.7144 11.7861C22.8442 11.7861 21.9732 11.7861 21.1021 11.7861C20.7548 11.7861 20.5164 11.9356 20.3886 12.2556C20.3418 12.3724 20.2933 12.4883 20.2448 12.6042C19.7748 13.7145 19.1745 14.7451 18.3316 15.6227C18.2464 15.7067 18.0812 15.805 17.991 15.7781C17.9007 15.7512 17.79 15.5833 17.7773 15.4682C17.7352 15.0639 17.7145 14.6577 17.7151 14.2512C17.7151 13.602 17.7602 12.9527 17.7432 12.3052C17.7296 11.7786 17.4614 11.5048 16.9343 11.4762C16.1306 11.4342 15.3234 11.4048 14.5188 11.4292C14.2208 11.4376 13.9151 11.5879 13.6367 11.7223C13.5362 11.771 13.4664 11.96 13.4605 12.0877C13.4605 12.149 13.6393 12.2447 13.7517 12.275C14.1169 12.3724 14.3477 12.6193 14.357 12.962C14.3851 13.7179 14.3741 14.4687 14.334 15.2204C14.323 15.4338 14.1569 15.6404 14.0624 15.8495C13.8649 15.7076 13.6265 15.5975 13.4775 15.417C12.7571 14.5345 12.1806 13.5467 11.7687 12.4891C11.5754 12.002 11.2263 11.7895 10.7163 11.7895L9.66815 11.7878Z" fill="white"/>
</svg>
