<svg width="33" height="33" viewBox="0 0 33 33" fill="none" xmlns="http://www.w3.org/2000/svg">
<path d="M16.9115 33H15.7637C15.5934 32.9748 15.4316 32.9463 15.2648 32.9261C14.6449 32.8539 14.0174 32.8194 13.4044 32.7077C10.4243 32.1626 7.78486 30.9137 5.53194 28.9156C2.44207 26.1742 0.630203 22.7651 0.155099 18.6799C0.10827 18.2768 0.0639908 17.8736 0.018013 17.4697V16.3383C0.0427048 16.1746 0.0699505 16.0108 0.0920879 15.8462C0.193409 15.1012 0.241944 14.3453 0.402866 13.6137C1.38798 9.1279 3.86738 5.64825 7.8104 3.2277C11.3447 1.05743 15.2103 0.37712 19.2972 1.10782C23.0878 1.78561 26.2645 3.59809 28.7422 6.50998C32.0271 10.3693 33.2106 14.8299 32.36 19.7869C31.8542 22.7324 30.5464 25.3302 28.5208 27.5567C25.7383 30.6114 22.2832 32.3953 18.1392 32.8639L16.9115 33ZM16.358 8.79195C15.8114 8.85494 15.2563 8.87594 14.7198 8.98848C9.56097 10.0484 6.78186 15.4816 8.96496 20.2169C9.03951 20.3868 9.06229 20.5745 9.03052 20.757C8.79126 21.9773 8.52987 23.1927 8.27614 24.4096C8.17992 24.8733 8.35532 25.0412 8.82191 24.9329C10.0378 24.6499 11.2519 24.3609 12.4712 24.093C12.6429 24.0592 12.821 24.0774 12.9821 24.1451C14.5146 24.8044 16.0915 25.0169 17.7382 24.7271C19.8216 24.3683 21.681 23.222 22.9212 21.5321C24.1614 19.8422 24.6845 17.7418 24.3794 15.6773C23.8022 11.7576 20.3853 8.84066 16.358 8.79195Z" fill="white"/>
<path d="M10.4771 22.6971C10.6287 21.9798 10.753 21.3256 10.9088 20.6814C10.9505 20.5381 10.9627 20.388 10.9447 20.2401C10.9268 20.0921 10.8789 19.9491 10.8041 19.8196C10.2639 18.8407 9.9993 17.7369 10.0378 16.623C10.0948 13.8514 12.237 11.304 15.0008 10.764C18.5837 10.0635 21.8643 12.2111 22.5361 15.7672C22.8324 17.3578 22.4832 18.9995 21.5637 20.3385C20.6442 21.6774 19.2281 22.6063 17.6207 22.9247C16.1077 23.2321 14.6696 23.0104 13.3073 22.2965C13.1983 22.2346 13.0778 22.1953 12.9529 22.1809C12.8281 22.1664 12.7015 22.1772 12.581 22.2125C11.9075 22.3872 11.2247 22.5274 10.4771 22.6971ZM18.6509 20.7653C19.4573 20.8267 20.089 20.2807 20.5863 19.5173C20.8621 19.0931 20.7106 18.6833 20.2236 18.5279C19.9017 18.4254 19.5594 18.375 19.2504 18.2448C18.6433 17.9929 18.1511 18.0584 17.745 18.6077C17.5747 18.8395 17.304 18.8647 17.0553 18.7303C16.0344 18.1835 15.1526 17.4153 14.4763 16.4836C14.3239 16.2736 14.3392 16.0502 14.4917 15.8411C14.5904 15.705 14.7301 15.5891 14.7939 15.4388C14.8671 15.2708 14.9557 15.0415 14.8995 14.8878C14.6939 14.3504 14.4606 13.8236 14.2005 13.3097C14.0506 13.0031 13.6896 12.8671 13.4197 13.0443C12.7862 13.4642 12.2907 13.9984 12.2379 14.808C12.1808 15.6849 12.4933 16.455 12.9769 17.1597C13.8005 18.3625 14.8914 19.3641 16.1664 20.0884C16.9149 20.5333 17.7728 20.7671 18.6467 20.7645L18.6509 20.7653Z" fill="white"/>
</svg>
