<svg width="33" height="33" viewBox="0 0 33 33" fill="none" xmlns="http://www.w3.org/2000/svg">
<path d="M17.4337 32.1878H15.6456C15.3213 32.1475 14.9969 32.1039 14.6716 32.0677C11.4429 31.7032 8.53697 30.5274 6.09418 28.4218C1.2265 24.2224 -0.643267 18.9311 0.621123 12.6672C2.07453 5.4702 8.74642 0.100804 16.1914 0.00169761C19.5521 -0.0436563 22.6692 0.786993 25.4662 2.63558C29.4969 5.29971 31.909 9.01033 32.6668 13.7498C32.7443 14.2344 32.7937 14.7232 32.8567 15.2095V16.9733C32.786 17.5327 32.7349 18.0945 32.6404 18.6531C32.0189 22.32 30.3296 25.4293 27.559 27.9456C25.1673 30.1431 22.1468 31.5597 18.9092 32.0022C18.4179 32.0728 17.9241 32.1232 17.4337 32.1878ZM16.2902 22.0319C17.9837 21.9479 19.4167 21.8992 20.8454 21.7984C21.4644 21.7548 22.1013 21.68 22.6854 21.4877C23.57 21.1954 24.218 20.6285 24.3951 19.6399C24.7758 17.5233 24.8115 15.3602 24.5006 13.2324C24.4215 12.689 24.3951 12.1238 24.0383 11.6526C23.6684 11.1452 23.1291 10.7827 22.5151 10.6288C21.9579 10.5006 21.3914 10.4164 20.8207 10.3768C17.6344 10.1116 14.4298 10.144 11.2497 10.4734C10.6442 10.5305 10.0667 10.7517 9.58084 11.1126C9.10794 11.443 8.78661 11.9445 8.68682 12.5076C8.30406 14.6462 8.26498 16.8309 8.57103 18.9815C8.67661 19.7374 8.80091 20.4748 9.47355 20.9854C9.98442 21.3709 10.543 21.6439 11.1807 21.6918C12.9679 21.8253 14.7576 21.932 16.2902 22.0319Z" fill="white"/>
<path d="M19.6619 16.0897L14.6188 19.1436V13.0367L19.6619 16.0897Z" fill="white"/>
</svg>
