<svg width="24" height="24" viewBox="0 0 24 24" fill="none" xmlns="http://www.w3.org/2000/svg">
<g clip-path="url(#clip0_5_193)">
<path d="M6.99286 18.1232C6.94653 18.2147 6.89075 18.301 6.82644 18.3809C5.07072 20.1421 3.31144 21.8983 1.54858 23.6494C1.38367 23.8074 1.18104 23.9204 0.960008 23.9779C0.617151 24.065 0.280004 23.8729 0.107861 23.5659C0.0245873 23.4177 -0.0126771 23.248 0.000805792 23.0785C0.0142887 22.909 0.0779134 22.7474 0.18358 22.6142C0.247463 22.5393 0.31517 22.4678 0.386435 22.4L5.62215 17.165C5.69358 17.0936 5.75501 17.0222 5.82001 16.9579C2.00573 12.4298 2.86 5.90469 7.11715 2.36973C11.1671 -0.993864 17.065 -0.759676 20.8964 2.94093C24.6364 6.55014 25.0471 12.5284 21.8379 16.6181C20.7044 18.0859 19.1938 19.219 17.4671 19.8967C15.7354 20.5859 13.847 20.7835 12.01 20.4679C10.1521 20.1623 8.50643 19.3819 6.99286 18.1232ZM13.7071 18.8193C14.8255 18.8194 15.9329 18.599 16.966 18.1708C17.9991 17.7426 18.9375 17.115 19.7276 16.3238C20.5177 15.5326 21.144 14.5935 21.5706 13.5601C21.9971 12.5267 22.2156 11.4193 22.2136 10.3014C22.2137 9.18334 21.9933 8.0762 21.5651 7.0433C21.1369 6.01039 20.5092 5.07198 19.7179 4.2817C18.9266 3.49143 17.9873 2.86479 16.9536 2.43761C15.9199 2.01043 14.8121 1.79109 13.6936 1.79212C12.5751 1.79212 11.4676 2.01259 10.4344 2.44092C9.40124 2.86924 8.46273 3.49702 7.67256 4.28832C6.88239 5.07961 6.25609 6.0189 5.82949 7.05242C5.40289 8.08593 5.18437 9.1934 5.18644 10.3114C5.19144 15.0237 9.00501 18.8329 13.7036 18.8186L13.7071 18.8193Z" fill="black"/>
</g>
<defs>
<clipPath id="clip0_5_193">
<rect width="24" height="24" fill="white"/>
</clipPath>
</defs>
</svg>
